{"title":"Sucker.Punch.2011.Extended.Cut.BDRip.XVID.AC3.HQ.Hive-CM8","uid":6484320,"size":2178672959,"categoryP":"video","categoryS":"movies","magnet":"?xt=urn:btih:9dff8957d517b224456a3a74587d32ec5ce05db2&amp;dn=Sucker.Punch.2011.Extended.Cut.BDRip.XVID.AC3.HQ.Hive-CM8&amp;tr=udp%3A%2F%2Ftracker.openbittorrent.com%3A80&amp;tr=udp%3A%2F%2Fopen.demonii.com%3A1337&amp;tr=udp%3A%2F%2Ftracker.coppersurfer.tk%3A6969&amp;tr=udp%3A%2F%2Fexodus.desync.com%3A6969","seeders":0,"leechers":0,"uploader":"SAFCukO09","files":6,"time":1308654415,"description":"Sucker.Punch.2011.Extended.Cut.BDRip.XVID.AC3.HQ.Hive-CM8\n\n\nThx Hive\n\n\nCM8 Doing It Right The First Time\n\n\nSource Bluray\n\nVideo: 720x304 @bitrate 1800 2pass\n\nAudio: English DTS to AC3 5.1 @448\n\nSample: yes 2 included, quality+action\n\nSubs: yes english in srt /subs\n\n\nNotes:\nyou prolly noticed i didnt do a rip from the cut version, i waited for the extended,\n18mins is a lot more footage.\njust wait for the real deal.\nenjoy\n\n &lt;a href=&quot;\nhttp://www.imdb.com/title/tt0978764/&quot; rel=&quot;nofollow&quot; target=&quot;_NEW&quot;&gt;\nhttp://www.imdb.com/title/tt0978764/&lt;/a&gt;\n\n\nGeneral\nComplete name : Sucker.Punch.2011.Extended.Cut.BDRip.XVID.AC3.HQ.Hive-CM8.avi\nFormat : AVI\nFormat/Info : Audio Video Interleave\nFormat profile : OpenDML\nFormat settings : rec\nFile size : 2.02 GiB\nDuration : 2h 7mn\nOverall bit rate : 2 262 Kbps\nWriting application : AVI-Mux GUI 1.17.7, Aug 8 2006 20:59:17\n\nVideo\nID : 0\nFormat : MPEG-4 Visual\nFormat profile : Advanced Simple@L5\nFormat settings, BVOP : 2\nFormat settings, QPel : Yes\nFormat settings, GMC : No warppoints\nFormat settings, Matrix : Default (H.263)\nMuxing mode : Packed bitstream\nCodec ID : XVID\nCodec ID/Hint : XviD\nDuration : 2h 7mn\nBit rate : 1 809 Kbps\nWidth : 720 pixels\nHeight : 304 pixels\nDisplay aspect ratio : 2.40:1\nFrame rate : 23.976 fps\nColor space : YUV\nChroma subsampling : 4:2:0\nBit depth : 8 bits\nScan type : Progressive\nCompression mode : Lossy\nBits/(Pixel*Frame) : 0.345\nStream size : 1.61 GiB (80%)\nWriting library : XviD 1.2.1 (UTC 2008-12-04)\n\nAudio\nID : 1\nFormat : AC-3\nFormat/Info : Audio Coding 3\nMode extension : CM (complete main)\nCodec ID : 2000\nDuration : 2h 7mn\nBit rate mode : Constant\nBit rate : 448 Kbps\nChannel(s) : 6 channels\nChannel positions : Front: L C R, Side: L R, LFE\nSampling rate : 48.0 KHz\nBit depth : 16 bits\nCompression mode : Lossy\nStream size : 409 MiB (20%)\nAlignment : Aligned on interleaves\nInterleave, duration : 64 ms (1.53 video frames)\nInterleave, preload duration : 192 ms\n\n\nCAST\nEmily Browning ... Baby Doll\nAbbie Cornish ... Sweet Pea\nJena Malone ... Rocket\nVanessa Hudgens ... Blondie\nJamie Chung ... Amber\nCarla Gugino ... Dr. Vera Gorski\n\n\nPLOT\nA young girl (Baby Doll) is locked away in a mental asylum by her abusive stepfather\nwhere she will undergo a lobotomy in five days' time. Faced with unimaginable odds,\nshe retreats to a fantastical world in her imagination where she and four other female\ninmates at the asylum, plot to escape the facility. The lines between reality and fantasy\nblur as Baby Doll and her four companions, as well as a mysterious guide, fight to retrieve\nthe five items they need that will allow them to break free from their captors before it's too late..","torrent":{"xt":"urn:btih:9dff8957d517b224456a3a74587d32ec5ce05db2","amp;dn":"Sucker.Punch.2011.Extended.Cut.BDRip.XVID.AC3.HQ.Hive-CM8","amp;tr":["udp%3A%2F%2Ftracker.openbittorrent.com%3A80","udp%3A%2F%2Fopen.demonii.com%3A1337","udp%3A%2F%2Ftracker.coppersurfer.tk%3A6969","udp%3A%2F%2Fexodus.desync.com%3A6969"],"infoHash":"9dff8957d517b224456a3a74587d32ec5ce05db2","infoHashBuffer":{"type":"Buffer","data":[157,255,137,87,213,23,178,36,69,106,58,116,88,125,50,236,92,224,93,178]},"announce":[],"urlList":[]}}